<?xml version="1.0" encoding="UTF-8" standalone="no"?>
<svg
   version="1.1"
   id="svg13"
   sodipodi:docname="82f5e29d258672f0d50a46eedd00c465.svg"
   width="320.00003"
   height="107.02995"
   xmlns:inkscape="http://www.inkscape.org/namespaces/inkscape"
   xmlns:sodipodi="http://sodipodi.sourceforge.net/DTD/sodipodi-0.dtd"
   xmlns="http://www.w3.org/2000/svg"
   xmlns:svg="http://www.w3.org/2000/svg">
  <sodipodi:namedview
     id="namedview15"
     pagecolor="#ffffff"
     bordercolor="#666666"
     borderopacity="1.0"
     inkscape:pageshadow="2"
     inkscape:pageopacity="0.0"
     inkscape:pagecheckerboard="0" />
  <defs
     id="SvgjsDefs1001" />
  <g
     id="SvgjsG1007"
     featurekey="odWo6G-0"
     transform="matrix(1.3865425,0,0,1.3865425,-19.324979,-16.126645)"
     fill="#ea5455">
    <g
       id="g7">
      <path
         d="m 33.077,27.942 c 0.308,0.153 0.655,0.326 1.019,0.509 l 2.296,1.126 c -0.355,0.492 -0.624,0.957 -1.707,2.325 -2.138,2.7 -6.077,7.674 -5.849,11.137 1.032,-0.202 3.505,-1.689 5.196,-2.708 3.144,-1.893 6.113,-3.681 8.296,-3.681 0.008,0 0.014,0 0.021,0 3.32,0.019 4.741,4.207 5.995,7.902 0.39,1.147 0.937,2.764 1.39,3.533 0.29,-1.005 0.449,-3.068 0.554,-4.402 0.16,-2.062 0.312,-4.011 0.776,-5.299 1.152,-3.18 7.52,-1.705 16.391,0.726 0.699,0.192 1.356,0.372 1.94,0.526 -1.333,-1.716 -3.746,-4.327 -5.234,-5.937 -1.702,-1.842 -3.068,-3.564 -3.676,-4.433 0.51,-0.333 1.079,-0.684 1.541,-0.969 2.598,-1.598 4.086,-2.562 4.461,-3.797 0.149,-0.496 0.076,-1.027 -0.2,-1.457 -0.505,-0.783 -1.456,-0.909 -1.77,-0.951 -3.062,-0.406 -12.854,1.427 -16.77,2.67 0.408,-4.805 1.972,-8.129 -0.823,-12.009 -1.954,-2.711 -4.21,0.099 -2.819,2.03 1.934,2.683 0.659,4.966 0.126,10.278 -0.176,-0.076 -0.367,-0.16 -0.57,-0.25 -1.188,-0.526 -2.81,-1.245 -5.365,-2.023 -1.621,-0.494 -3.142,-0.837 -4.518,-1.02 -3.556,-0.471 -5.159,0.257 -5.443,0.408 l -0.421,0.223 -0.218,0.423 c -0.215,0.418 -0.251,0.901 -0.101,1.358 0.369,1.133 1.719,1.889 5.482,3.762 z"
         id="path3" />
      <path
         d="m 64.999,30.876 c 0.305,0.375 0.63,0.759 0.982,1.14 6.025,6.517 7.434,8.346 6.631,9.766 -0.171,0.302 -0.702,0.978 -1.976,0.715 -0.9,-0.186 -2.263,-0.56 -3.84,-0.992 -2.559,-0.702 -5.742,-1.574 -8.477,-2.069 -3.877,-0.702 -4.794,-0.256 -4.939,-0.159 -0.34,0.984 -0.482,2.821 -0.62,4.599 -0.282,3.629 -0.521,5.895 -1.837,6.745 -0.316,0.204 -0.67,0.309 -1.038,0.309 -0.237,0 -0.479,-0.043 -0.718,-0.131 -1.512,-0.544 -2.246,-2.709 -3.175,-5.449 -0.889,-2.62 -2.107,-6.208 -3.657,-6.217 -0.003,0 -0.007,0 -0.01,0 -1.491,0 -4.553,1.844 -7.014,3.326 -3.892,2.343 -6.17,3.631 -7.759,2.86 -0.373,-0.181 -1.021,-0.647 -1.157,-1.729 -0.544,-4.326 3.424,-9.534 6.028,-12.831 -9.964,4.359 -16.742,12.703 -18.205,22.458 -0.977,6.518 0.7,15.043 3.456,19.47 3.283,5.271 8.783,9.41 16.951,12.261 3.91,1.364 9.208,2.862 14.19,3.516 19.747,2.594 34.822,-9.172 37.02,-25.753 1.754,-13.227 -6.924,-25.96 -20.836,-31.835 z m 15.697,31.13 c -0.329,1.646 -1.117,4.933 -2.694,8.439 -2.689,5.977 -8.595,8.816 -9.785,8.659 0,0 0,0 -0.001,0 -0.103,-0.015 -0.199,-0.04 -0.29,-0.082 -0.304,-0.137 -0.507,-0.414 -0.542,-0.742 -0.063,-0.601 0.312,-0.879 1.219,-1.551 1.58,-1.169 4.87,-3.603 6.666,-7.595 1.479,-3.288 2.409,-6.67 3.026,-8.907 0.725,-2.633 0.943,-3.426 1.915,-3.298 l 0.129,0.018 0.137,0.058 c 0.447,0.203 1.122,0.506 0.22,5.001 z"
         id="path5" />
    </g>
  </g>
  <g
     id="SvgjsG1008"
     featurekey="VGK2BT-0"
     transform="matrix(2.5733263,0,0,2.5733263,117.36505,19.645441)"
     fill="#ea5455">
    <path
       d="m 5.3558,11.5256 c 1.9831,0 3.8812,1.6273 3.8812,4.1697 0,2.4746 -1.5424,4.4064 -3.9322,4.4064 -0.91525,0 -1.6949,-0.30475 -2.3049,-0.72847 -0.084746,0.40678 -0.54237,0.62695 -0.88136,0.62695 H 1.44057 c -0.15254,0 -0.27119,-0.11864 -0.27119,-0.27102 V 7.89816 C 1.16938,7.37274 1.084634,7.10155 1.03379,6.79646 1.000058,6.60985 1.050905,6.44036 1.2204,6.44036 h 1.1525 c 0.38983,0 0.64407,0.25424 0.64407,0.61017 v 5.1356 c 0.57627,-0.35593 1.3219,-0.66102 2.3388,-0.66102 z m -0.3392,6.8647 c 1.3729,0 2.4068,-1.0169 2.4068,-2.6949 0,-1.7288 -1.2712,-2.4576 -2.339,-2.4576 -0.76271,0 -1.4576,0.27119 -2.0678,0.66102 v 3.9322 c 0.54237,0.30508 1.1864,0.55932 2,0.55932 z m 12.932546,-1.8988 c 0.61,0 1.0336,-0.30508 1.0336,-1.0169 0,-2.0847 -1.6102,-3.9831 -4.0847,-3.9831 -2.3559,0 -4.2034,1.8644 -4.2034,4.3051 0,2.5422 1.9322,4.288 4.3051,4.288 1.5085,0 2.6949,-0.61017 3.4237,-1.5932 0.10186,-0.13559 0.06796,-0.23729 -0.03357,-0.37288 l -0.32203,-0.42373 c -0.13559,-0.16933 -0.27119,-0.15254 -0.44085,-0.05085 -0.5422,0.44068 -1.4405,0.81373 -2.4236,0.81373 -1.3898,0 -2.3729,-0.84746 -2.5593,-1.9661 h 5.3051 z m -5.3052,-1.4407 c 0.0678,-0.81356 0.83051,-1.8644 2.2203,-1.8644 1.4068,0 2.1356,1.0678 2.1864,1.8644 h -4.4068 z m 14.830623,1.4407 c 0.61,0 1.0336,-0.30508 1.0336,-1.0169 0,-2.0847 -1.6102,-3.9831 -4.0847,-3.9831 -2.3559,0 -4.2034,1.8644 -4.2034,4.3051 0,2.5422 1.9322,4.288 4.3051,4.288 1.5085,0 2.6949,-0.61017 3.4237,-1.5932 0.10186,-0.13559 0.06796,-0.23729 -0.03357,-0.37288 l -0.32203,-0.42373 c -0.13559,-0.16933 -0.27119,-0.15254 -0.44085,-0.05085 -0.5422,0.44068 -1.4405,0.81373 -2.4236,0.81373 -1.3898,0 -2.3729,-0.84746 -2.5593,-1.9661 h 5.3051 z m -5.3052,-1.4407 c 0.0678,-0.81356 0.83051,-1.8644 2.2203,-1.8644 1.4068,0 2.1356,1.0678 2.1864,1.8644 h -4.4068 z M 36.813393,6.932 c 0.11864,0.067631 0.18627,0.22017 0.11848,0.35576 l -0.47458,1.0508 c -0.0678,0.15254 -0.20339,0.18644 -0.37288,0.13559 -0.23729,-0.11864 -0.72881,-0.37288 -1.3729,-0.37288 -0.64409,0 -1.7119,0.35593 -1.7119,1.661 v 1.8475 h 2.0169 c 0.13559,0 0.22034,0.08475 0.22034,0.22034 v 1.2881 c 0,0.11864 -0.08475,0.20339 -0.22034,0.20339 h -2.0169 v 6.3898 c 0,0.16949 -0.10169,0.28814 -0.27119,0.28814 h -0.9322 c -0.42373,0 -0.64407,-0.28797 -0.64407,-0.69475 v -5.9831 h -1.2034 c -0.13559,0 -0.22034,-0.0678 -0.22034,-0.18644 v -1.0339 c 0,-0.32203 0.20339,-0.49153 0.50847,-0.49153 h 0.91525 v -1.8475 c 0,-2.3051 1.5254,-3.4069 3.5086,-3.4069 0.84746,0 1.5932,0.23746 2.1525,0.57644 z m 0.355929,11.8478 0.5761,-0.91508 c 0.11864,-0.18661 0.22034,-0.23746 0.38983,-0.15271 0.01695,0.0339 1.0508,0.64407 2.1864,0.64407 0.98305,0 1.322,-0.38983 1.322,-0.77966 0,-0.57627 -0.62712,-0.77949 -1.7627,-1.0676 -1.6102,-0.42373 -2.678,-1.2542 -2.678,-2.5424 0,-1.2712 1.0847,-2.4576 3.1186,-2.4576 1.2373,0 2.0847,0.42373 2.7627,0.81356 0.16949,0.10169 0.25424,0.25424 0.15254,0.38983 l -0.62712,0.9661 c -0.08475,0.13559 -0.22034,0.18644 -0.37288,0.13559 -0.44068,-0.22017 -1.1525,-0.54237 -1.9153,-0.54237 -0.94915,0 -1.2034,0.47458 -1.2034,0.76271 0,0.49153 0.71186,0.72881 1.5763,0.96593 1.5086,0.40678 3.0171,1.1356 3.0171,2.6102 0,1.4237 -1.3558,2.5083 -3.3898,2.5083 -1.3898,0 -2.6441,-0.6778 -3.0678,-1.0168 -0.11864,-0.0678 -0.15254,-0.23729 -0.08475,-0.32203 z m 13.152519,0.678 c 0.05085,0.13559 -0.05068,0.22 -0.16933,0.30475 -0.28814,0.18644 -0.91525,0.32203 -1.5424,0.32203 -1.8136,0 -2.4746,-0.9322 -2.4746,-3.1186 v -3.5763 h -1 c -0.15254,0 -0.27119,-0.10169 -0.27119,-0.27119 v -0.28814 c 0,-0.13559 0.0339,-0.23712 0.13559,-0.33898 0.98305,-0.79661 1.7627,-1.6269 2.4407,-3.339 0.05085,-0.11864 0.10169,-0.18644 0.18644,-0.18644 h 0.18644 c 0.13559,0 0.18644,0.067797 0.18644,0.22034 v 2.4237 h 1.7797 c 0.15254,0 0.28814,0.11881 0.28814,0.28831 v 1.2203 c 0,0.15254 -0.13559,0.27119 -0.28814,0.27119 h -1.4746 c -0.13559,0 -0.25424,-0.01695 -0.32203,-0.05085 v 3.4576 c 0,0.98305 0.11864,1.5424 0.94915,1.5424 0.35593,0 0.59322,-0.05085 0.79661,-0.10169 0.20339,-0.05084 0.33898,0.0339 0.37288,0.22051 z m 8.508661,-2.9663 c 0.61,0 1.0336,-0.30508 1.0336,-1.0169 0,-2.0847 -1.6102,-3.9831 -4.0847,-3.9831 -2.3559,0 -4.2034,1.8644 -4.2034,4.3051 0,2.5422 1.9322,4.288 4.3051,4.288 1.5085,0 2.6949,-0.61017 3.4237,-1.5932 0.10186,-0.13559 0.06796,-0.23729 -0.03357,-0.37288 l -0.32203,-0.42373 c -0.13559,-0.16933 -0.27119,-0.15254 -0.44085,-0.05085 -0.5422,0.44068 -1.4405,0.81373 -2.4236,0.81373 -1.3898,0 -2.3729,-0.84746 -2.5593,-1.9661 h 5.3051 z m -5.3052,-1.4407 c 0.0678,-0.81356 0.83051,-1.8644 2.2203,-1.8644 1.4068,0 2.1356,1.0678 2.1864,1.8644 h -4.4068 z m 15.203323,4.57632 c -0.22034,-1.661 -0.2368,-3.2032 -0.16916,-4.8302 0.08475,-2 -1.0169,-3.2881 -3.0847,-3.2881 -1.3559,0 -2.7627,0.40678 -3.5932,0.86441 -0.15254,0.08475 -0.25424,0.23712 -0.18644,0.38966 l 0.42373,0.98305 c 0.0678,0.16949 0.18644,0.22034 0.40678,0.11864 1.0847,-0.49153 1.9661,-0.72881 2.8305,-0.72881 0.91525,0 1.4576,0.35593 1.4237,1.322 -3.1356,0.5422 -5.5254,1.1015 -5.5254,3.3049 0,1.4746 1.0678,2.3219 2.7966,2.3219 1.4408,0 2.1864,-0.44051 2.8983,-0.98288 0.08458,0.50847 0.23712,0.89831 0.5761,0.89831 h 1.0169 c 0.15238,0 0.20322,-0.18644 0.18627,-0.37288 z m -4.3556,-0.99982 c -0.69492,0 -1.2373,-0.23729 -1.2373,-0.88136 0,-1.0339 1.8981,-1.3729 3.6102,-1.7288 -0.01695,0.55932 -0.01695,1.3051 0,1.7966 -0.55932,0.42373 -1.5085,0.81356 -2.3729,0.81356 z m 14.253892,0.81355 c 0.22034,0.23729 0.11848,0.54271 -0.20356,0.54271 h -1.3729 c -0.15254,0 -0.23729,-0.0339 -0.33898,-0.15254 l -4.0339,-4.0339 v 3.9322 c 0,0.15238 -0.11864,0.27102 -0.27119,0.27102 h -1.2881 c -0.16949,0 -0.28814,-0.11864 -0.28814,-0.27102 v -11.848 c 0,-0.57627 -0.08475,-0.83051 -0.13559,-1.0847 -0.03373,-0.18661 0.01711,-0.3561 0.18661,-0.3561 h 1.1525 c 0.38983,0 0.64407,0.25424 0.64407,0.61017 v 8.2881 l 3.4068,-3.5932 C 76.186227,11.6439 76.287927,11.61 76.406567,11.61 h 1.3559 c 0.27119,0 0.42373,0.33898 0.22034,0.55932 l -3.339,3.4068 z"
       id="path10" />
  </g>
</svg>
